<svg width="1695" height="1696" viewBox="0 0 1695 1696" fill="none" xmlns="http://www.w3.org/2000/svg">
<path d="M656.774 1014.57L826.793 1066.82L749.91 1143.7L742.917 1150.69L626.009 1114.86C514.95 1080.78 431.956 993.157 403.91 880.449C375.864 767.74 408.109 651.45 490.241 569.318L948.5 110.872C949.906 111.49 951.294 112.184 952.606 112.972C954.012 113.665 955.399 114.453 956.712 115.165C959.074 116.384 961.342 117.79 963.704 119.102C965.973 120.414 968.241 121.802 970.528 123.301C972.366 124.445 974.109 125.57 975.853 126.788C977.596 127.932 979.34 129.15 981.102 130.463C982.771 131.606 984.327 132.825 985.901 134.043C987.307 135 988.695 136.143 990.007 137.268C991.226 138.149 992.369 139.105 993.494 140.155C993.663 140.249 993.85 140.324 994.019 140.511C999.268 144.879 1004.24 149.416 1009.13 154.309L1031.33 176.506L564.331 643.426C508.501 699.35 486.567 778.407 505.614 855.121C524.661 931.835 581.184 991.414 656.774 1014.57Z" fill="white"/>
<path d="M706.828 860.97L963.872 929.735L878.253 1015.35L679.738 962.224C623.215 947.189 580.49 904.464 565.286 847.941C550.175 791.418 565.811 733.039 607.13 691.72L1076.84 222.006L1151.03 296.189L681.313 765.809C675.539 771.658 671.171 778.295 668.302 785.644C664.028 796.836 663.409 808.965 666.559 820.851C667.177 823.213 667.965 825.482 668.921 827.675C675.651 844.098 689.374 856.34 706.847 860.97H706.828Z" fill="white"/>
<path d="M1204.78 1125.7L746.424 1584.15L682.215 1648.36C661.33 1635.61 641.852 1620.22 624.117 1602.48L601.92 1580.29L663.692 1518.51L1130.69 1051.59C1186.61 995.67 1208.55 916.518 1189.4 839.898C1170.26 763.184 1113.83 703.605 1038.24 680.452L868.3 628.297L875.293 621.305L952.176 544.422L1069.08 580.248C1180.12 614.331 1263.14 701.956 1291.18 814.664C1319.14 927.373 1286.91 1043.66 1204.78 1125.7Z" fill="white"/>
<path d="M1087.87 1003.39L618.248 1473.11L556.476 1534.88L482.293 1460.7L544.065 1398.92L1013.78 929.304C1019.63 923.361 1024 916.725 1026.71 909.376C1030.99 898.183 1031.61 886.054 1028.46 874.243C1027.84 871.881 1027.05 869.612 1026.19 867.419C1019.55 850.996 1005.74 838.754 988.189 834.049L731.22 765.378L738.381 758.216L809.677 686.92L816.839 679.759L1015.26 732.701C1071.78 747.905 1114.51 790.63 1129.71 847.078C1144.82 903.601 1129.19 962.055 1087.87 1003.39Z" fill="white"/>
<path d="M1607.64 847.51C1607.64 908.588 1583.86 965.993 1540.71 1009.15L1009.13 1540.73C965.973 1583.88 908.568 1607.66 847.49 1607.66C843.909 1607.66 840.328 1607.56 836.822 1607.39H835.772C832.979 1607.23 830.261 1607.04 827.561 1606.78C826.605 1606.68 825.724 1606.61 824.768 1606.51C822.068 1606.25 819.444 1605.99 816.725 1605.56C816.294 1605.56 815.844 1605.46 815.413 1605.39C814.269 1605.29 813.051 1605.13 811.832 1604.96C808.776 1604.43 805.796 1603.91 802.833 1603.38C802.402 1603.21 801.952 1603.12 801.615 1603.12C798.915 1602.5 796.197 1601.9 793.572 1601.28C791.041 1600.66 788.511 1600.06 785.98 1599.28C784.236 1598.85 782.568 1598.32 780.918 1597.87C777.956 1596.99 774.975 1596.03 772.088 1594.98C771.207 1594.63 770.344 1594.36 769.463 1594.03C769.201 1593.93 769.032 1593.86 768.77 1593.76C766.239 1592.88 763.783 1591.93 761.346 1590.88C760.296 1590.52 759.246 1590 758.196 1589.57C754.615 1587.99 751.035 1586.42 747.454 1584.67C747.098 1584.5 746.76 1584.32 746.404 1584.15L1204.76 1125.7C1286.89 1043.66 1319.13 927.373 1291.16 814.664C1263.12 701.955 1180.1 614.312 1069.06 580.248L952.156 544.422L875.273 621.305L868.28 628.297L1038.22 680.452C1113.79 703.605 1170.24 763.184 1189.38 839.898C1208.53 916.518 1186.59 995.688 1130.67 1051.59L663.672 1518.51L601.9 1580.29L556.475 1534.86L618.247 1473.09L1087.87 1003.37C1129.19 962.056 1144.84 903.602 1129.71 847.06C1114.51 790.611 1071.78 747.886 1015.26 732.682L816.838 679.74L809.676 686.901L738.38 758.197L731.219 765.359L988.188 834.03C1005.75 838.755 1019.55 850.978 1026.19 867.4C1027.07 869.594 1027.86 871.862 1028.46 874.225C1031.61 886.017 1030.99 898.165 1026.71 909.357C1024.01 916.687 1019.63 923.342 1013.78 929.285L544.064 1398.91L154.289 1009.13C111.133 965.974 87.3613 908.57 87.3613 847.491C87.3613 786.412 111.133 729.008 154.289 685.852L685.869 154.309C729.025 111.153 786.43 87.3813 847.508 87.3813C851.089 87.3813 854.67 87.4751 858.176 87.6438H859.225C862.9 87.8125 866.556 88.1687 870.23 88.5249C873.192 88.7874 876.173 89.1436 879.06 89.5748C879.585 89.5748 880.016 89.6685 880.466 89.7435C881.61 89.8372 882.659 90.006 883.691 90.1747C886.484 90.6059 889.202 91.1308 891.902 91.6557C892.427 91.7495 892.858 91.8245 893.383 91.9182C896.083 92.5369 898.707 93.1368 901.426 93.7554C903.956 94.3741 906.487 94.974 909.018 95.7614C910.331 96.1176 911.718 96.455 913.03 96.905C915.036 97.5236 917.042 98.1236 919.067 98.836C923.004 100.148 927.016 101.536 930.859 103.11C932.865 103.729 934.796 104.516 936.708 105.472C938.714 106.26 940.72 107.141 942.651 108.097C944.657 108.978 946.588 109.934 948.5 110.89L490.241 569.337C408.109 651.469 375.864 767.758 403.91 880.467C431.956 993.176 514.95 1080.82 626.009 1114.88L742.917 1150.71L749.91 1143.72L826.793 1066.83L656.773 1014.59C581.203 991.433 524.661 931.835 505.614 855.14C486.566 778.426 508.501 699.35 564.33 643.445L1031.33 176.525L1076.84 222.043L607.13 691.757C565.811 733.076 550.157 791.455 565.286 847.978C580.49 904.501 623.216 947.226 679.739 962.262L878.254 1015.39L963.873 929.773L706.829 861.008C689.356 856.377 675.633 844.154 668.903 827.712C667.947 825.519 667.159 823.251 666.541 820.888C663.391 809.003 664.01 796.854 668.284 785.681C671.171 778.351 675.539 771.695 681.295 765.846L1151.01 296.226L1540.69 685.908C1583.85 729.064 1607.62 786.468 1607.62 847.547L1607.64 847.51Z" fill="#213147"/>
<path d="M1602.48 624.023L1212.8 234.341L1138.62 160.158L1071 92.5367C1053.26 74.8017 1033.69 59.429 1012.8 46.662C963.611 16.2539 906.826 0 847.491 0C763.09 0 683.752 32.8453 624.079 92.5179L92.5179 624.023C32.8453 683.789 0 763.128 0 847.528C0 931.928 32.8453 1011.27 92.5179 1071.03L482.293 1460.71L544.066 1398.94L154.29 1009.17C111.134 966.011 87.3624 908.607 87.3624 847.528C87.3624 786.449 111.134 729.045 154.29 685.889L685.87 154.309C729.026 111.153 786.431 87.3812 847.509 87.3812C851.09 87.3812 854.671 87.4749 858.177 87.6436H859.226C862.901 87.8124 866.557 88.1686 870.231 88.5248C873.193 88.7872 876.174 89.1434 879.061 89.5746C879.586 89.5746 880.017 89.6684 880.467 89.7433C881.611 89.8371 882.661 90.0058 883.692 90.1745C886.485 90.6057 889.203 91.1306 891.903 91.6556C892.428 91.7493 892.859 91.8243 893.384 91.918C896.084 92.5367 898.708 93.1366 901.427 93.7553C903.958 94.3739 906.488 94.9738 909.019 95.7612C910.332 96.1174 911.719 96.4549 913.031 96.9048C915.037 97.5235 917.043 98.1234 919.068 98.8358C923.005 100.148 927.017 101.535 930.86 103.11C932.866 103.729 934.797 104.516 936.709 105.472C938.715 106.26 940.721 107.141 942.652 108.097C944.658 108.978 946.589 109.934 948.501 110.89L490.242 569.337C408.11 651.469 375.865 767.758 403.911 880.467C431.957 993.176 514.951 1080.82 626.01 1114.88L742.918 1150.71L749.911 1143.72L826.794 1066.83L656.774 1014.59C581.204 991.432 524.662 931.835 505.615 855.14C486.568 778.426 508.502 699.349 564.331 643.445L1031.33 176.525L1030.71 175.906L1076.85 222.043L607.131 691.757C565.812 733.076 550.158 791.455 565.287 847.978C580.492 904.501 623.217 947.226 679.74 962.262L878.255 1015.39L963.874 929.772L706.83 861.007C689.357 856.377 675.634 844.154 668.904 827.712C667.948 825.519 667.16 823.25 666.542 820.888C663.392 809.002 664.011 796.854 668.285 785.681C671.172 778.351 675.54 771.695 681.296 765.846L1151.01 296.226L1540.69 685.908C1583.85 729.064 1607.62 786.468 1607.62 847.547C1607.62 908.626 1583.85 966.03 1540.69 1009.19L1009.11 1540.77C965.955 1583.92 908.551 1607.69 847.472 1607.69C843.891 1607.69 840.31 1607.6 836.805 1607.43H835.755C832.961 1607.26 830.243 1607.08 827.543 1606.81C826.587 1606.72 825.706 1606.64 824.75 1606.55C822.051 1606.29 819.426 1606.03 816.708 1605.59C816.276 1605.59 815.826 1605.5 815.395 1605.43C814.252 1605.33 813.033 1605.16 811.814 1604.99C808.759 1604.47 805.778 1603.94 802.816 1603.42C802.385 1603.25 801.935 1603.16 801.597 1603.16C798.898 1602.54 796.179 1601.94 793.555 1601.32C791.024 1600.7 788.493 1600.1 785.962 1599.31C784.218 1598.88 782.55 1598.36 780.9 1597.91C777.938 1597.03 774.957 1596.07 772.07 1595.02C771.189 1594.66 770.327 1594.4 769.446 1594.06C769.183 1593.97 769.014 1593.9 768.752 1593.8C766.221 1592.92 763.765 1591.96 761.328 1590.91C760.278 1590.56 759.228 1590.03 758.178 1589.6C754.598 1588.03 751.017 1586.45 747.436 1584.71C747.08 1584.54 746.743 1584.35 746.386 1584.18L682.177 1648.39C731.37 1678.8 788.155 1695.06 847.491 1695.06C931.891 1695.06 1011.23 1662.21 1071 1602.54L1602.48 1071.05C1662.15 1011.29 1695 931.947 1695 847.547C1695 763.146 1662.15 683.808 1602.48 624.041V624.023Z" fill="#E3066E"/>
</svg>
